<svg width="512" height="512" viewBox="0 0 512 512" fill="none" xmlns="http://www.w3.org/2000/svg">
<path d="M245.202 116.478C354.114 116.478 442.404 204.781 442.404 313.708C442.404 422.634 354.114 510.936 245.202 510.936C136.291 510.936 48.0002 422.634 48 313.708C48 204.781 136.29 116.478 245.202 116.478ZM245.187 197.326C180.46 197.326 127.989 249.571 127.989 314.018C127.989 378.465 180.46 430.71 245.187 430.71C309.913 430.71 362.384 378.465 362.384 314.018C362.384 249.571 309.913 197.326 245.187 197.326Z" fill="#F66B0C"/>
<path d="M295.379 333.56L270.03 368.829C267.313 372.61 267.565 377.766 270.637 381.265L381.538 507.535C383.436 509.697 386.174 510.936 389.051 510.936H458.542C467.352 510.936 471.857 500.368 465.756 494.012L310.714 332.472C306.386 327.962 299.027 328.484 295.379 333.56Z" fill="#F66B0C"/>
<path d="M77.2885 92.5853V109.226" stroke="#113F71" stroke-width="5"/>
<path d="M76.7159 107.936C82.5044 107.936 87.1973 114.02 87.1973 121.525C87.1971 126.87 84.8148 131.492 81.3536 133.711C81.3561 133.713 81.3589 133.715 81.3614 133.717L87.5596 138.466C89.2885 139.79 90.3028 141.844 90.3028 144.022V177.809C90.3024 181.675 87.1684 184.809 83.3028 184.809H80.4249V180.252H79.4249V184.809H74.1954V180.252H73.1954V184.809H70.9053C67.0396 184.809 63.9057 181.675 63.9053 177.809V144.022C63.9053 141.844 64.9198 139.79 66.6485 138.466L72.5098 133.973C68.8158 131.872 66.2346 127.09 66.2344 121.525C66.2344 114.02 70.9273 107.936 76.7159 107.936Z" fill="#F66B0C"/>
<path d="M245.716 0.757042C246.913 0.283094 248.247 0.288932 249.439 0.773643L435.486 76.3859C439.651 78.0785 439.64 83.9796 435.47 85.6574L249.423 160.506C248.24 160.982 246.919 160.987 245.732 160.522L54.7703 85.674C50.5444 84.0176 50.5345 78.0403 54.7547 76.3693L245.716 0.757042ZM239.479 55.8283C236.718 55.8285 234.48 58.1053 234.479 60.8664C234.479 63.6277 236.718 65.9053 239.479 65.9055H251.191C253.953 65.9054 256.191 63.6278 256.191 60.8664C256.191 58.1052 253.952 55.8284 251.191 55.8283H239.479Z" fill="#113F71"/>
<path d="M101.885 111.904C101.885 106.598 105.362 101.934 110.499 100.609C126.969 96.3619 163.574 88.1505 189.312 91.4884C207.602 93.8603 232.396 103.619 242.746 107.944C245.857 109.244 249.356 109.256 252.481 107.99C263.415 103.56 290.459 93.2904 310.297 91.4884C332.844 89.4404 364.437 96.664 379.444 100.59C384.563 101.929 388.01 106.582 388.01 111.872V189.638C388.01 195.611 383.652 200.663 377.73 201.443C353.395 204.646 291.05 212.266 247.597 212.404C202.286 212.548 137.147 204.684 112.169 201.43C106.241 200.657 101.885 195.604 101.885 189.626V111.904Z" fill="#113F71"/>
</svg>
