<svg width="512" height="512" viewBox="0 0 512 512" fill="none" xmlns="http://www.w3.org/2000/svg">
<path d="M245.202 116.478C354.114 116.478 442.404 204.781 442.404 313.708C442.404 422.634 354.114 510.936 245.202 510.936C136.291 510.936 48.0002 422.634 48 313.708C48 204.781 136.29 116.478 245.202 116.478ZM245.187 197.326C180.46 197.326 127.989 249.571 127.989 314.018C127.989 378.465 180.46 430.71 245.187 430.71C309.913 430.71 362.384 378.465 362.384 314.018C362.384 249.571 309.913 197.326 245.187 197.326Z" fill="#DD4134"/>
<path d="M295.379 333.56L270.03 368.829C267.313 372.61 267.565 377.766 270.637 381.265L381.538 507.535C383.436 509.697 386.174 510.936 389.051 510.936H458.542C467.352 510.936 471.857 500.368 465.756 494.012L310.714 332.472C306.386 327.962 299.027 328.484 295.379 333.56Z" fill="#DD4134"/>
<path d="M77.2885 92.5853V109.226" stroke="#4285F4" stroke-width="5"/>
<path d="M76.7159 107.936C82.5044 107.936 87.1973 114.02 87.1973 121.525C87.1972 126.87 84.8148 131.492 81.3536 133.711C81.3561 133.713 81.3589 133.715 81.3614 133.717L87.5596 138.466C89.2885 139.79 90.3028 141.844 90.3028 144.022V177.809C90.3025 181.675 87.1684 184.809 83.3028 184.809H80.4249V180.252H79.4249V184.809H74.1954V180.252H73.1954V184.809H70.9053C67.0397 184.809 63.9057 181.675 63.9053 177.809V144.022C63.9053 141.844 64.9198 139.79 66.6485 138.466L72.5098 133.973C68.8158 131.872 66.2346 127.09 66.2344 121.525C66.2344 114.02 70.9274 107.936 76.7159 107.936Z" fill="#DD4134"/>
<path d="M147.173 98.149C161.446 96.0056 176.49 94.8673 188.669 96.4468C206.203 98.7208 230.415 108.211 240.819 112.557C245.153 114.368 250.019 114.382 254.359 112.624C265.358 108.168 291.752 98.194 310.749 96.4683C332.312 94.5097 363.107 101.485 378.179 105.427C381.005 106.167 383.01 108.759 383.01 111.873V189.638C383.01 193.145 380.468 196.039 377.077 196.485C352.716 199.692 290.67 207.267 247.581 207.404C202.648 207.547 137.821 199.73 112.815 196.471C109.426 196.029 106.885 193.14 106.885 189.626V111.904L106.891 111.613C107.012 108.626 108.995 106.161 111.748 105.451C119.887 103.352 132.976 100.281 147.173 98.149Z" fill="#337DF8" stroke="white" stroke-width="10"/>
<path d="M245.715 0.757393C246.912 0.283469 248.246 0.289344 249.439 0.773994L435.486 76.3863C439.65 78.0788 439.64 83.98 435.469 85.6578L389.049 104.333C387.797 103.233 386.294 102.397 384.6 101.926C369.269 97.667 336.164 89.5904 312.605 91.8511C292.119 93.817 264.205 105.004 252.854 109.859C249.595 111.253 245.906 111.239 242.663 109.808C231.92 105.069 206.33 94.4386 187.445 91.8511C160.563 88.1682 122.223 97.3507 105.427 101.952C103.933 102.361 102.586 103.055 101.429 103.962L54.77 85.6744C50.5444 84.0179 50.5346 78.0409 54.7543 76.3697L245.715 0.757393ZM239.479 55.8287C236.718 55.8291 234.479 58.1058 234.479 60.8668C234.479 63.6278 236.718 65.9054 239.479 65.9058H251.191C253.952 65.9058 256.191 63.628 256.191 60.8668C256.191 58.1056 253.952 55.8287 251.191 55.8287H239.479Z" fill="#337DF8"/>
<path d="M245.716 0.757095C246.912 0.283275 248.247 0.289048 249.439 0.773697L435.486 76.386C439.65 78.0786 439.64 83.9785 435.469 85.6565L389.049 104.331C387.797 103.232 386.293 102.396 384.6 101.926C369.269 97.6667 336.164 89.5902 312.605 91.8508C292.119 93.8167 264.205 105.005 252.854 109.86C249.595 111.254 245.906 111.24 242.663 109.809C231.92 105.07 206.33 94.4383 187.444 91.8508C160.562 88.1681 122.222 97.3504 105.427 101.951C103.933 102.361 102.587 103.054 101.43 103.961L54.7712 85.6731C50.5453 84.0167 50.5345 78.0405 54.7546 76.3694L245.716 0.757095ZM239.48 55.8284C236.719 55.8284 234.48 58.1052 234.48 60.8665C234.48 63.6279 236.719 65.9046 239.48 65.9046H251.191C253.952 65.9044 256.191 63.6278 256.191 60.8665C256.191 58.1053 253.952 55.8285 251.191 55.8284H239.48Z" fill="#4285F4"/>
</svg>
